<svg width="12" height="21" viewBox="0 0 12 21" fill="none" xmlns="http://www.w3.org/2000/svg">
<path d="M11.15 9.44L10.89 11.5C10.85 11.84 10.55 12.1 10.21 12.1H6.87V20.72C6.52 20.75 6.16005 20.77 5.80005 20.77C4.99005 20.77 4.20994 20.69 3.43994 20.54V12.1H0.869995C0.629995 12.1 0.439941 11.91 0.439941 11.67V9.09C0.439941 8.85 0.629995 8.66 0.869995 8.66H3.43994V4.78999C3.43994 2.40999 5.35997 0.490005 7.71997 0.490005H10.72C10.96 0.490005 11.15 0.679998 11.15 0.919998V3.5C11.15 3.74 10.96 3.92999 10.72 3.92999H8.57996C7.62996 3.92999 6.87 4.69999 6.87 5.64999V8.66H10.47C10.88 8.66 11.2 9.01999 11.15 9.42999V9.44Z" fill="white"/>
</svg>
