<svg width="17" height="17" viewBox="0 0 17 17" fill="none" xmlns="http://www.w3.org/2000/svg">
<path d="M12.78 0.550003H4.42004C2.26004 0.550003 0.52002 2.3 0.52002 4.45V12.81C0.52002 14.97 2.27004 16.71 4.42004 16.71H12.78C14.94 16.71 16.6801 14.96 16.6801 12.81V4.45C16.6801 2.29 14.93 0.550003 12.78 0.550003ZM15.29 12.54C15.29 14.08 14.04 15.33 12.5 15.33H4.68994C3.14994 15.33 1.90002 14.08 1.90002 12.54V4.73C1.90002 3.19 3.14994 1.94 4.68994 1.94H12.5C14.04 1.94 15.29 3.19 15.29 4.73V12.54Z" fill="white"/>
<path d="M8.60999 4.45C6.29999 4.45 4.43005 6.32 4.43005 8.63C4.43005 10.94 6.29999 12.81 8.60999 12.81C10.92 12.81 12.79 10.94 12.79 8.63C12.79 6.32 10.92 4.45 8.60999 4.45ZM8.60999 11.43C7.06999 11.43 5.81995 10.18 5.81995 8.64C5.81995 7.1 7.06999 5.85001 8.60999 5.85001C10.15 5.85001 11.4 7.1 11.4 8.64C11.4 10.18 10.15 11.43 8.60999 11.43Z" fill="white"/>
<path d="M13.0699 5.02C13.5339 5.02 13.91 4.64391 13.91 4.17999C13.91 3.71607 13.5339 3.34 13.0699 3.34C12.606 3.34 12.23 3.71607 12.23 4.17999C12.23 4.64391 12.606 5.02 13.0699 5.02Z" fill="white"/>
</svg>
