<svg width="16" height="16" viewBox="0 0 16 16" fill="none" xmlns="http://www.w3.org/2000/svg">
<path d="M2.17004 4.52C3.26909 4.52 4.16003 3.62905 4.16003 2.53C4.16003 1.43095 3.26909 0.539993 2.17004 0.539993C1.071 0.539993 0.180054 1.43095 0.180054 2.53C0.180054 3.62905 1.071 4.52 2.17004 4.52Z" fill="white"/>
<path d="M2.17004 5.84H2.16003C1.24876 5.84 0.51001 6.57874 0.51001 7.49001V14.12C0.51001 15.0313 1.24876 15.77 2.16003 15.77H2.17004C3.08131 15.77 3.81995 15.0313 3.81995 14.12V7.49001C3.81995 6.57874 3.08131 5.84 2.17004 5.84Z" fill="white"/>
<path d="M15.0699 9.48V15.11C15.0699 15.47 14.77 15.77 14.41 15.77H12.42C12.06 15.77 11.76 15.47 11.76 15.11V10.48C11.76 9.57 11.02 8.83 10.11 8.83C9.19999 8.83 8.45996 9.57 8.45996 10.48V15.11C8.45996 15.47 8.16005 15.77 7.80005 15.77H5.81006C5.45006 15.77 5.15002 15.47 5.15002 15.11V6.50999C5.15002 6.14999 5.45006 5.85001 5.81006 5.85001H7.80005C8.16005 5.85001 8.45996 6.14999 8.45996 6.50999V6.92999C9.11996 6.06999 10.2199 5.50999 11.4399 5.50999C13.2699 5.50999 15.08 6.83 15.08 9.48H15.0699Z" fill="white"/>
</svg>
