<svg width="261" height="79" viewBox="0 0 261 79" fill="none" xmlns="http://www.w3.org/2000/svg">
<path d="M260.9 22.1C260.9 22.71 260.8 23.24 260.6 23.71C260.4 24.18 260.13 24.58 259.79 24.91C259.45 25.24 259.05 25.49 258.61 25.66C258.16 25.83 257.69 25.92 257.2 25.92C256.71 25.92 256.24 25.83 255.79 25.66C255.34 25.49 254.95 25.24 254.61 24.91C254.27 24.58 254 24.18 253.8 23.71C253.6 23.24 253.5 22.7 253.5 22.1C253.5 21.5 253.6 20.97 253.8 20.49C254 20.01 254.27 19.61 254.61 19.29C254.95 18.96 255.34 18.71 255.79 18.54C256.24 18.37 256.71 18.28 257.2 18.28C257.69 18.28 258.16 18.37 258.61 18.54C259.06 18.71 259.45 18.96 259.79 19.29C260.13 19.62 260.4 20.02 260.6 20.49C260.8 20.96 260.9 21.5 260.9 22.1ZM260.1 22.1C260.1 21.64 260.03 21.21 259.88 20.83C259.73 20.45 259.53 20.12 259.28 19.84C259.02 19.57 258.72 19.35 258.36 19.21C258 19.06 257.61 18.99 257.18 18.99C256.75 18.99 256.36 19.06 256 19.21C255.64 19.36 255.33 19.57 255.08 19.84C254.82 20.11 254.62 20.44 254.48 20.83C254.33 21.21 254.26 21.64 254.26 22.1C254.26 22.56 254.33 22.99 254.48 23.37C254.62 23.75 254.83 24.08 255.08 24.36C255.34 24.63 255.64 24.85 256 24.99C256.36 25.14 256.75 25.21 257.18 25.21C257.61 25.21 258 25.14 258.36 24.99C258.72 24.84 259.03 24.63 259.28 24.36C259.54 24.09 259.74 23.76 259.88 23.37C260.02 22.99 260.1 22.56 260.1 22.1ZM258.26 24.2C258.09 23.88 257.91 23.58 257.7 23.3C257.49 23.02 257.32 22.79 257.16 22.62H256.43V24.2H255.66V20.11C255.86 20.07 256.06 20.04 256.28 20.01C256.5 19.99 256.7 19.98 256.88 19.98C257.51 19.98 257.99 20.09 258.31 20.31C258.63 20.53 258.79 20.87 258.79 21.34C258.79 21.6 258.72 21.83 258.58 22.02C258.44 22.21 258.24 22.36 257.98 22.47C258.05 22.55 258.14 22.66 258.23 22.79C258.32 22.92 258.42 23.06 258.53 23.21C258.63 23.36 258.74 23.52 258.83 23.7C258.93 23.87 259.02 24.04 259.1 24.21H258.26V24.2ZM256.43 22.01H256.84C257.17 22.01 257.44 21.97 257.65 21.88C257.87 21.79 257.98 21.61 257.98 21.34C257.98 21.08 257.88 20.9 257.67 20.8C257.46 20.7 257.22 20.65 256.93 20.65C256.85 20.65 256.77 20.65 256.68 20.65C256.59 20.65 256.51 20.65 256.43 20.67V22.02V22.01Z" fill="white"/>
<path d="M126.6 57.41V61.63H130.58V63.02H124.83V57.41H126.6Z" fill="white"/>
<path d="M134.98 58.48H133.48V57.41H134.98V58.48ZM134.98 63.02H133.48V59.09H134.98V63.02Z" fill="white"/>
<path d="M142.5 59.1H144V63.2C144 63.5 143.93 63.77 143.79 64.01C143.65 64.25 143.46 64.43 143.22 64.57C143.02 64.68 142.74 64.76 142.38 64.81C142.02 64.86 141.58 64.88 141.05 64.88C140.62 64.88 140.23 64.86 139.9 64.83C139.57 64.8 139.29 64.73 139.06 64.63C138.83 64.53 138.66 64.38 138.54 64.2C138.42 64.01 138.36 63.76 138.35 63.45H139.87C139.88 63.55 139.91 63.62 139.96 63.67C140.01 63.72 140.08 63.76 140.19 63.8C140.29 63.83 140.42 63.85 140.57 63.86C140.72 63.86 140.91 63.87 141.13 63.87C141.41 63.87 141.64 63.86 141.81 63.82C141.99 63.79 142.13 63.74 142.23 63.67C142.33 63.6 142.4 63.51 142.44 63.39C142.48 63.28 142.5 63.13 142.5 62.96V62.21C142.42 62.36 142.33 62.49 142.24 62.59C142.15 62.69 142.04 62.77 141.91 62.83C141.78 62.89 141.61 62.94 141.43 62.97C141.24 63 141 63.01 140.72 63.01C140.27 63.01 139.88 62.99 139.56 62.95C139.24 62.91 138.97 62.82 138.77 62.7C138.57 62.57 138.41 62.39 138.32 62.15C138.22 61.91 138.17 61.6 138.17 61.21C138.17 61.09 138.17 60.94 138.19 60.78C138.2 60.62 138.21 60.44 138.22 60.25C138.27 59.44 138.98 59.03 140.38 59.03C140.73 59.03 141.01 59.03 141.25 59.03C141.48 59.03 141.68 59.06 141.83 59.11C141.99 59.16 142.12 59.24 142.22 59.35C142.32 59.46 142.42 59.62 142.51 59.83V59.1H142.5ZM139.69 61C139.69 61.2 139.7 61.36 139.73 61.48C139.76 61.6 139.82 61.69 139.91 61.76C140.01 61.83 140.15 61.87 140.33 61.89C140.51 61.91 140.76 61.92 141.07 61.92C141.33 61.92 141.55 61.92 141.72 61.9C141.9 61.88 142.04 61.85 142.15 61.79C142.26 61.74 142.34 61.66 142.39 61.57C142.44 61.47 142.46 61.35 142.46 61.2C142.46 60.94 142.45 60.74 142.42 60.59C142.4 60.44 142.33 60.33 142.23 60.25C142.13 60.18 141.98 60.13 141.78 60.11C141.58 60.09 141.3 60.08 140.95 60.08C140.67 60.08 140.44 60.09 140.27 60.11C140.1 60.13 139.97 60.18 139.88 60.24C139.79 60.31 139.73 60.4 139.71 60.52C139.68 60.64 139.67 60.8 139.67 60.99L139.69 61Z" fill="white"/>
<path d="M148.9 57.41V59.76C148.96 59.61 149.04 59.48 149.12 59.39C149.21 59.29 149.32 59.21 149.45 59.16C149.58 59.1 149.73 59.06 149.92 59.04C150.1 59.02 150.32 59.01 150.58 59.01C150.93 59.01 151.24 59.03 151.51 59.07C151.79 59.11 152.04 59.2 152.26 59.36C152.49 59.52 152.65 59.71 152.75 59.94C152.85 60.17 152.9 60.47 152.9 60.83V63.03H151.37V61.07C151.37 60.89 151.37 60.74 151.34 60.62C151.32 60.5 151.28 60.4 151.2 60.33C151.12 60.25 151.01 60.2 150.84 60.17C150.68 60.14 150.46 60.12 150.17 60.12C149.92 60.12 149.71 60.13 149.55 60.16C149.38 60.19 149.25 60.24 149.15 60.32C149.05 60.4 148.98 60.51 148.93 60.64C148.89 60.78 148.87 60.95 148.87 61.17C148.87 61.22 148.87 61.25 148.87 61.28C148.87 61.31 148.87 61.35 148.87 61.39V63.02H147.34V57.41H148.87H148.9Z" fill="white"/>
<path d="M160.68 59.11V60.09H158.24V61.33C158.24 61.43 158.24 61.53 158.24 61.62C158.24 61.71 158.27 61.79 158.3 61.85C158.34 61.92 158.4 61.97 158.49 62.01C158.58 62.05 158.7 62.07 158.86 62.07C159.02 62.07 159.14 62.05 159.23 62.02C159.32 61.99 159.38 61.94 159.42 61.88C159.46 61.82 159.48 61.74 159.48 61.65C159.48 61.56 159.48 61.45 159.48 61.33H160.66C160.66 61.48 160.66 61.62 160.66 61.75C160.66 61.88 160.66 62 160.64 62.11C160.63 62.22 160.6 62.33 160.57 62.43C160.53 62.53 160.48 62.62 160.41 62.7C160.26 62.88 160.06 62.99 159.81 63.04C159.56 63.09 159.25 63.12 158.88 63.12C158.51 63.12 158.2 63.1 157.92 63.07C157.65 63.04 157.42 62.97 157.24 62.87C157.06 62.77 156.92 62.63 156.83 62.45C156.74 62.27 156.7 62.04 156.7 61.75V60.09H155.92V59.11H156.7V58.13H158.23V59.11H160.67H160.68Z" fill="white"/>
<path d="M165.14 58.48H163.64V57.41H165.14V58.48ZM165.14 63.02H163.64V59.09H165.14V63.02Z" fill="white"/>
<path d="M169.97 59.9C170.03 59.73 170.1 59.59 170.19 59.47C170.28 59.36 170.4 59.26 170.55 59.2C170.7 59.13 170.89 59.08 171.12 59.05C171.35 59.02 171.63 59 171.96 59C172.49 59 172.92 59.08 173.23 59.25C173.55 59.42 173.77 59.68 173.89 60.03C173.94 60.18 173.96 60.32 173.97 60.48C173.97 60.63 173.98 60.79 173.98 60.95V63.01H172.45V60.95C172.45 60.78 172.43 60.63 172.4 60.53C172.37 60.42 172.31 60.33 172.22 60.27C172.13 60.21 172.01 60.17 171.85 60.14C171.69 60.12 171.48 60.11 171.22 60.11C170.94 60.11 170.71 60.13 170.55 60.18C170.38 60.23 170.25 60.3 170.16 60.4C170.07 60.49 170.01 60.61 169.99 60.76C169.97 60.9 169.95 61.07 169.95 61.26V63.02H168.45V59.09H169.95V59.9H169.97Z" fill="white"/>
<path d="M181.58 59.1H183.08V63.2C183.08 63.5 183.01 63.77 182.87 64.01C182.73 64.25 182.54 64.43 182.3 64.57C182.1 64.68 181.82 64.76 181.46 64.81C181.1 64.86 180.66 64.88 180.13 64.88C179.7 64.88 179.31 64.86 178.98 64.83C178.65 64.8 178.37 64.73 178.14 64.63C177.91 64.53 177.74 64.38 177.62 64.2C177.5 64.01 177.44 63.76 177.43 63.45H178.95C178.96 63.55 178.99 63.62 179.04 63.67C179.09 63.72 179.16 63.76 179.27 63.8C179.37 63.83 179.5 63.85 179.65 63.86C179.8 63.86 179.99 63.87 180.21 63.87C180.49 63.87 180.72 63.86 180.89 63.82C181.07 63.79 181.21 63.74 181.31 63.67C181.41 63.6 181.48 63.51 181.52 63.39C181.56 63.28 181.58 63.13 181.58 62.96V62.21C181.5 62.36 181.41 62.49 181.32 62.59C181.23 62.69 181.12 62.77 180.99 62.83C180.86 62.89 180.69 62.94 180.51 62.97C180.32 63 180.08 63.01 179.8 63.01C179.35 63.01 178.96 62.99 178.64 62.95C178.32 62.91 178.05 62.82 177.85 62.7C177.64 62.57 177.49 62.39 177.4 62.15C177.3 61.91 177.25 61.6 177.25 61.21C177.25 61.09 177.25 60.94 177.27 60.78C177.28 60.62 177.29 60.44 177.3 60.25C177.35 59.44 178.06 59.03 179.46 59.03C179.81 59.03 180.09 59.03 180.33 59.03C180.56 59.03 180.76 59.06 180.91 59.11C181.07 59.16 181.2 59.24 181.3 59.35C181.4 59.46 181.5 59.62 181.59 59.83V59.1H181.58ZM178.78 61C178.78 61.2 178.79 61.36 178.82 61.48C178.85 61.6 178.91 61.69 179 61.76C179.1 61.83 179.24 61.87 179.42 61.89C179.6 61.91 179.85 61.92 180.16 61.92C180.42 61.92 180.64 61.92 180.81 61.9C180.99 61.88 181.13 61.85 181.24 61.79C181.35 61.74 181.43 61.66 181.48 61.57C181.53 61.47 181.55 61.35 181.55 61.2C181.55 60.94 181.54 60.74 181.52 60.59C181.5 60.44 181.43 60.33 181.33 60.25C181.23 60.18 181.08 60.13 180.88 60.11C180.68 60.09 180.4 60.08 180.05 60.08C179.77 60.08 179.54 60.09 179.38 60.11C179.21 60.13 179.08 60.18 178.99 60.24C178.9 60.31 178.84 60.4 178.82 60.52C178.79 60.64 178.78 60.8 178.78 60.99V61Z" fill="white"/>
<path d="M195.87 59.13C195.87 59 195.84 58.9 195.8 58.82C195.76 58.74 195.69 58.69 195.59 58.65C195.49 58.61 195.36 58.59 195.19 58.58C195.03 58.57 194.81 58.56 194.55 58.56H194.44C194.44 58.56 194.37 58.56 194.33 58.56C193.95 58.58 193.64 58.59 193.39 58.59C193.14 58.59 192.93 58.6 192.78 58.63C192.62 58.66 192.51 58.7 192.44 58.77C192.37 58.84 192.34 58.95 192.34 59.11C192.34 59.25 192.39 59.36 192.5 59.43C192.6 59.5 192.75 59.54 192.93 59.54C193.19 59.54 193.44 59.55 193.67 59.56C193.9 59.56 194.12 59.56 194.32 59.56C194.44 59.56 194.57 59.56 194.7 59.56C194.83 59.56 194.95 59.56 195.07 59.56C195.55 59.56 195.96 59.57 196.32 59.6C196.67 59.62 196.96 59.69 197.19 59.81C197.42 59.92 197.59 60.09 197.7 60.32C197.81 60.55 197.86 60.87 197.86 61.29C197.86 61.58 197.83 61.83 197.77 62.03C197.71 62.23 197.62 62.4 197.5 62.53C197.38 62.66 197.22 62.76 197.03 62.84C196.84 62.91 196.61 62.96 196.35 62.99C196.19 63.01 195.89 63.03 195.45 63.05C195.01 63.07 194.44 63.08 193.74 63.08C193.04 63.08 192.5 63.06 192.07 63.02C191.64 62.98 191.33 62.89 191.13 62.76C190.99 62.66 190.89 62.56 190.82 62.45C190.75 62.34 190.71 62.22 190.68 62.1C190.65 61.98 190.64 61.84 190.64 61.7V61.23H192.38V61.42C192.38 61.49 192.39 61.55 192.42 61.6C192.45 61.65 192.5 61.7 192.58 61.74C192.65 61.78 192.77 61.81 192.93 61.82C193.01 61.82 193.15 61.83 193.35 61.84C193.55 61.84 193.81 61.84 194.12 61.84C194.52 61.84 194.85 61.84 195.11 61.84C195.37 61.84 195.57 61.82 195.71 61.78C195.85 61.75 195.95 61.7 196.01 61.63C196.06 61.56 196.09 61.46 196.09 61.34C196.09 61.22 196.06 61.12 196.01 61.05C195.96 60.98 195.88 60.93 195.78 60.9C195.68 60.87 195.57 60.85 195.43 60.84C195.3 60.84 195.15 60.84 194.98 60.84C194.41 60.84 193.91 60.84 193.47 60.84C193.03 60.84 192.65 60.84 192.33 60.81C192.01 60.79 191.73 60.75 191.51 60.69C191.29 60.63 191.11 60.54 190.97 60.42C190.83 60.3 190.74 60.13 190.68 59.93C190.62 59.73 190.59 59.47 190.59 59.17C190.59 58.9 190.61 58.66 190.66 58.45C190.71 58.25 190.79 58.08 190.91 57.94C191.03 57.8 191.18 57.7 191.37 57.62C191.56 57.54 191.79 57.49 192.07 57.46C192.25 57.44 192.55 57.42 192.97 57.39C193.38 57.37 193.9 57.36 194.52 57.36C194.85 57.36 195.14 57.36 195.41 57.36C195.67 57.36 195.91 57.37 196.11 57.4C196.31 57.42 196.5 57.45 196.65 57.5C196.81 57.54 196.94 57.6 197.06 57.69C197.19 57.78 197.29 57.88 197.36 57.98C197.43 58.08 197.49 58.19 197.52 58.31C197.55 58.43 197.58 58.56 197.59 58.69C197.6 58.83 197.61 58.98 197.61 59.14H195.89L195.87 59.13Z" fill="white"/>
<path d="M206.44 59.1L204.07 64.01C203.99 64.18 203.91 64.32 203.82 64.42C203.73 64.52 203.63 64.6 203.5 64.66C203.37 64.72 203.22 64.76 203.04 64.78C202.86 64.8 202.65 64.81 202.39 64.81C202.29 64.81 202.2 64.81 202.1 64.81C202 64.81 201.92 64.8 201.84 64.79V63.8C201.93 63.81 202.02 63.81 202.1 63.81C202.18 63.81 202.25 63.81 202.31 63.81C202.43 63.81 202.52 63.79 202.6 63.76C202.68 63.73 202.74 63.68 202.8 63.62C202.85 63.56 202.91 63.48 202.95 63.38C203 63.29 203.05 63.17 203.1 63.04H202.49L200.64 59.11H202.3L203.49 62.01L204.8 59.11H206.46L206.44 59.1Z" fill="white"/>
<path d="M211.76 61.52C211.37 61.52 211.03 61.52 210.72 61.5C210.42 61.49 210.16 61.45 209.95 61.37C209.74 61.3 209.58 61.18 209.47 61.01C209.36 60.85 209.31 60.61 209.31 60.29C209.31 60.08 209.35 59.89 209.43 59.72C209.51 59.55 209.62 59.42 209.75 59.32C209.92 59.2 210.2 59.11 210.6 59.07C211 59.03 211.52 59 212.17 59C212.64 59 213.04 59 213.36 59.03C213.68 59.05 213.93 59.1 214.13 59.18C214.33 59.26 214.47 59.37 214.56 59.53C214.65 59.68 214.7 59.89 214.72 60.16H213.14C213.13 60.1 213.1 60.05 213.07 60.01C213.03 59.97 212.97 59.94 212.89 59.92C212.81 59.9 212.7 59.89 212.57 59.88C212.44 59.88 212.28 59.88 212.09 59.88C211.9 59.88 211.72 59.88 211.57 59.88C211.42 59.88 211.29 59.9 211.18 59.92C211.08 59.94 211 59.98 210.94 60.03C210.89 60.08 210.86 60.15 210.86 60.24C210.86 60.32 210.88 60.38 210.93 60.41C210.97 60.45 211.04 60.47 211.14 60.49C211.24 60.51 211.36 60.52 211.51 60.52H212.06C212.15 60.52 212.25 60.52 212.35 60.52C212.45 60.52 212.55 60.52 212.64 60.52C213.04 60.52 213.38 60.52 213.68 60.55C213.97 60.57 214.21 60.62 214.4 60.7C214.59 60.78 214.73 60.9 214.82 61.06C214.91 61.22 214.95 61.43 214.95 61.7C214.95 62 214.91 62.25 214.82 62.43C214.73 62.62 214.58 62.76 214.36 62.86C214.14 62.96 213.84 63.03 213.46 63.07C213.08 63.1 212.6 63.12 212.03 63.12C211.58 63.12 211.19 63.12 210.85 63.09C210.51 63.07 210.24 63.02 210.01 62.94C209.78 62.86 209.62 62.73 209.5 62.56C209.39 62.39 209.32 62.14 209.32 61.82H210.89C210.89 61.92 210.91 61.99 210.96 62.04C211 62.09 211.07 62.13 211.17 62.16C211.27 62.19 211.39 62.2 211.55 62.21C211.7 62.21 211.89 62.21 212.11 62.21C212.35 62.21 212.56 62.21 212.73 62.21C212.9 62.21 213.04 62.19 213.15 62.17C213.26 62.15 213.33 62.11 213.38 62.05C213.43 62 213.45 61.92 213.45 61.83C213.45 61.69 213.39 61.6 213.27 61.57C213.15 61.54 212.95 61.52 212.67 61.52H211.79H211.76Z" fill="white"/>
<path d="M222.52 59.11V60.09H220.08V61.33C220.08 61.43 220.08 61.53 220.08 61.62C220.08 61.71 220.11 61.79 220.14 61.85C220.18 61.92 220.24 61.97 220.33 62.01C220.42 62.05 220.54 62.07 220.7 62.07C220.86 62.07 220.98 62.05 221.07 62.02C221.16 61.99 221.22 61.94 221.26 61.88C221.3 61.82 221.32 61.74 221.32 61.65C221.32 61.56 221.32 61.45 221.32 61.33H222.5C222.5 61.48 222.5 61.62 222.5 61.75C222.5 61.88 222.5 62 222.48 62.11C222.47 62.22 222.44 62.33 222.41 62.43C222.37 62.53 222.32 62.62 222.25 62.7C222.1 62.88 221.9 62.99 221.65 63.04C221.4 63.09 221.09 63.12 220.72 63.12C220.35 63.12 220.04 63.1 219.76 63.07C219.49 63.04 219.26 62.97 219.08 62.87C218.9 62.77 218.76 62.63 218.67 62.45C218.58 62.27 218.54 62.04 218.54 61.75V60.09H217.76V59.11H218.54V58.13H220.07V59.11H222.51H222.52Z" fill="white"/>
<path d="M226.92 61.48C226.92 61.63 226.94 61.74 226.97 61.83C227.01 61.92 227.07 61.99 227.15 62.05C227.24 62.1 227.35 62.14 227.5 62.16C227.64 62.18 227.83 62.19 228.04 62.19C228.32 62.19 228.55 62.19 228.73 62.19C228.91 62.19 229.04 62.17 229.14 62.14C229.24 62.11 229.3 62.07 229.34 62.01C229.37 61.95 229.39 61.86 229.4 61.75H230.88C230.88 62.01 230.84 62.23 230.75 62.41C230.67 62.59 230.53 62.73 230.35 62.83C230.17 62.94 229.93 63.01 229.65 63.05C229.36 63.09 229.02 63.11 228.62 63.11C228.04 63.11 227.55 63.09 227.14 63.06C226.73 63.03 226.4 62.95 226.15 62.82C225.89 62.69 225.71 62.5 225.59 62.25C225.47 62 225.41 61.65 225.41 61.22C225.41 60.7 225.45 60.29 225.54 60C225.63 59.71 225.79 59.49 226.02 59.35C226.25 59.21 226.56 59.12 226.96 59.08C227.36 59.05 227.86 59.03 228.47 59.03C228.94 59.03 229.33 59.05 229.65 59.11C229.97 59.16 230.22 59.26 230.4 59.41C230.54 59.53 230.64 59.65 230.7 59.79C230.76 59.92 230.81 60.07 230.83 60.23C230.85 60.39 230.86 60.56 230.86 60.74C230.86 60.92 230.86 61.12 230.86 61.33H226.89V61.48H226.92ZM229.41 60.58V60.46C229.41 60.33 229.39 60.22 229.35 60.14C229.31 60.06 229.24 60.01 229.14 59.97C229.04 59.93 228.92 59.91 228.78 59.9C228.63 59.89 228.45 59.88 228.25 59.88C228.05 59.88 227.85 59.88 227.68 59.89C227.52 59.89 227.38 59.92 227.26 59.96C227.15 60 227.06 60.06 227 60.13C226.94 60.21 226.91 60.31 226.91 60.45V60.56H229.4L229.41 60.58Z" fill="white"/>
<path d="M239.39 63.02H237.89V60.97C237.89 60.81 237.89 60.68 237.86 60.57C237.84 60.46 237.8 60.38 237.72 60.31C237.64 60.24 237.54 60.2 237.39 60.17C237.25 60.14 237.05 60.13 236.79 60.13C236.36 60.13 236.06 60.19 235.88 60.31C235.7 60.43 235.61 60.65 235.61 60.97V63.02H234.11V59.09H235.61V59.82C235.67 59.69 235.74 59.57 235.83 59.47C235.92 59.37 236.02 59.29 236.15 59.22C236.28 59.15 236.43 59.1 236.61 59.07C236.79 59.04 237.01 59.02 237.27 59.02C237.78 59.02 238.19 59.08 238.5 59.21C238.81 59.34 239.04 59.56 239.18 59.88C239.22 59.76 239.27 59.65 239.33 59.55C239.39 59.45 239.49 59.35 239.64 59.26C239.74 59.2 239.9 59.14 240.14 59.09C240.37 59.04 240.64 59.01 240.93 59.01C241.66 59.01 242.21 59.14 242.57 59.42C242.93 59.69 243.11 60.14 243.11 60.76V63.01H241.64V61.06C241.64 60.88 241.63 60.72 241.6 60.6C241.57 60.48 241.52 60.38 241.44 60.31C241.36 60.24 241.25 60.19 241.1 60.16C240.95 60.13 240.75 60.12 240.51 60.12C240.27 60.12 240.07 60.14 239.93 60.18C239.78 60.22 239.67 60.28 239.59 60.37C239.51 60.45 239.46 60.56 239.43 60.69C239.4 60.82 239.39 60.97 239.39 61.14V63.02Z" fill="white"/>
<path d="M248.79 61.52C248.4 61.52 248.06 61.52 247.75 61.5C247.45 61.49 247.19 61.45 246.98 61.37C246.77 61.3 246.61 61.18 246.5 61.01C246.39 60.85 246.34 60.61 246.34 60.29C246.34 60.08 246.38 59.89 246.46 59.72C246.54 59.55 246.65 59.42 246.78 59.32C246.95 59.2 247.23 59.11 247.63 59.07C248.03 59.03 248.56 59 249.2 59C249.67 59 250.07 59 250.39 59.03C250.71 59.05 250.96 59.1 251.16 59.18C251.36 59.26 251.5 59.37 251.59 59.53C251.68 59.68 251.73 59.89 251.75 60.16H250.18C250.17 60.1 250.14 60.05 250.11 60.01C250.07 59.97 250.01 59.94 249.93 59.92C249.85 59.9 249.74 59.89 249.6 59.88C249.47 59.88 249.31 59.88 249.12 59.88C248.93 59.88 248.75 59.88 248.6 59.88C248.45 59.88 248.32 59.9 248.21 59.92C248.11 59.94 248.03 59.98 247.97 60.03C247.92 60.08 247.89 60.15 247.89 60.24C247.89 60.32 247.91 60.38 247.96 60.41C248 60.45 248.07 60.47 248.17 60.49C248.27 60.51 248.39 60.52 248.54 60.52H249.09C249.18 60.52 249.28 60.52 249.38 60.52C249.48 60.52 249.58 60.52 249.67 60.52C250.07 60.52 250.41 60.52 250.71 60.55C251 60.57 251.24 60.62 251.43 60.7C251.62 60.78 251.76 60.9 251.85 61.06C251.94 61.22 251.98 61.43 251.98 61.7C251.98 62 251.94 62.25 251.85 62.43C251.76 62.62 251.61 62.76 251.39 62.86C251.17 62.96 250.87 63.03 250.49 63.07C250.11 63.1 249.63 63.12 249.06 63.12C248.61 63.12 248.22 63.12 247.88 63.09C247.54 63.07 247.27 63.02 247.04 62.94C246.82 62.86 246.65 62.73 246.53 62.56C246.41 62.39 246.35 62.14 246.35 61.82H247.92C247.92 61.92 247.94 61.99 247.99 62.04C248.03 62.09 248.1 62.13 248.2 62.16C248.3 62.19 248.42 62.2 248.58 62.21C248.73 62.21 248.92 62.21 249.14 62.21C249.38 62.21 249.59 62.21 249.76 62.21C249.93 62.21 250.07 62.19 250.18 62.17C250.29 62.15 250.36 62.11 250.41 62.05C250.46 62 250.48 61.92 250.48 61.83C250.48 61.69 250.42 61.6 250.3 61.57C250.18 61.54 249.98 61.52 249.7 61.52H248.82H248.79Z" fill="white"/>
<path d="M244.74 47.51C244.52 48.35 244.18 49.05 243.74 49.62C243.29 50.19 242.72 50.65 242.02 51C241.32 51.35 240.48 51.61 239.49 51.77C238.5 51.93 237.33 52.01 236 52.01C233.66 52.01 231.7 51.89 230.14 51.64C228.58 51.4 227.32 50.94 226.37 50.28C225.42 49.62 224.75 48.71 224.34 47.56C223.93 46.41 223.73 44.91 223.73 43.07C223.73 41.04 223.85 39.32 224.09 37.93C224.33 36.53 224.86 35.41 225.68 34.58C226.5 33.74 227.69 33.14 229.24 32.77C230.79 32.4 232.86 32.22 235.45 32.22C236.71 32.22 237.79 32.25 238.71 32.32C239.63 32.39 240.44 32.54 241.14 32.77C241.84 33 242.46 33.35 243.02 33.81H243.04C243.71 34.38 244.74 33.92 244.74 33.06V30.38C244.74 27.13 247.45 24.5 250.8 24.5C251.36 24.5 251.82 24.94 251.82 25.49V50.63C251.82 51.17 251.37 51.62 250.8 51.62H245.76C245.2 51.62 244.74 51.18 244.74 50.63V47.51ZM237.71 37.31C236.23 37.31 235.07 37.38 234.22 37.51C233.37 37.65 232.71 37.9 232.25 38.28C231.79 38.66 231.5 39.19 231.37 39.86C231.24 40.54 231.18 41.43 231.18 42.54C231.18 43.49 231.27 44.23 231.45 44.77C231.63 45.31 231.95 45.72 232.41 45.99C232.87 46.26 233.48 46.44 234.25 46.52C235.02 46.6 235.97 46.64 237.12 46.64C238.74 46.64 240.04 46.6 241.03 46.52C242.02 46.44 242.79 46.24 243.33 45.93C243.87 45.62 244.24 45.14 244.44 44.51C244.63 43.87 244.73 43 244.73 41.89C244.73 40.78 244.63 39.95 244.42 39.33C244.21 38.71 243.83 38.25 243.29 37.95C242.75 37.65 242.02 37.47 241.11 37.4C240.2 37.33 239.07 37.3 237.7 37.3L237.71 37.31Z" fill="white"/>
<path d="M46.04 47.51C45.82 48.35 45.48 49.05 45.04 49.62C44.59 50.19 44.02 50.65 43.32 51C42.62 51.35 41.78 51.61 40.79 51.77C39.8 51.93 38.64 52.01 37.3 52.01C34.96 52.01 33 51.89 31.44 51.64C29.88 51.4 28.62 50.94 27.67 50.28C26.72 49.62 26.04 48.71 25.64 47.56C25.24 46.41 25.03 44.91 25.03 43.07C25.03 41.04 25.15 39.32 25.39 37.93C25.63 36.53 26.16 35.41 26.98 34.58C27.8 33.74 28.99 33.14 30.54 32.77C32.09 32.4 34.16 32.22 36.75 32.22C38.01 32.22 39.09 32.25 40.01 32.32C40.93 32.39 41.74 32.54 42.44 32.77C43.14 33 43.76 33.35 44.32 33.81H44.34C45.01 34.38 46.04 33.92 46.04 33.06V30.38C46.04 27.13 48.75 24.5 52.1 24.5C52.66 24.5 53.12 24.94 53.12 25.49V50.63C53.12 51.17 52.66 51.62 52.1 51.62H47.06C46.5 51.62 46.04 51.18 46.04 50.63V47.51ZM39.01 37.31C37.53 37.31 36.37 37.38 35.52 37.51C34.67 37.65 34.01 37.9 33.55 38.28C33.09 38.66 32.8 39.19 32.67 39.86C32.54 40.54 32.48 41.43 32.48 42.54C32.48 43.49 32.57 44.23 32.75 44.77C32.93 45.31 33.25 45.72 33.71 45.99C34.17 46.26 34.78 46.44 35.55 46.52C36.32 46.6 37.27 46.64 38.42 46.64C40.04 46.64 41.34 46.6 42.33 46.52C43.32 46.44 44.09 46.24 44.63 45.93C45.17 45.62 45.54 45.14 45.74 44.51C45.93 43.87 46.03 43 46.03 41.89C46.03 40.78 45.93 39.95 45.72 39.33C45.51 38.71 45.13 38.25 44.59 37.95C44.05 37.65 43.32 37.47 42.41 37.4C41.5 37.33 40.37 37.3 39 37.3L39.01 37.31Z" fill="white"/>
<path d="M57.0001 43.41C57.0001 41.92 57.03 40.6 57.08 39.45C57.14 38.3 57.3 37.31 57.58 36.48C57.86 35.65 58.2801 34.96 58.8401 34.41C59.4001 33.86 60.1801 33.41 61.1801 33.09C62.1901 32.76 63.4401 32.53 64.9501 32.4C66.4601 32.27 68.2801 32.2 70.4301 32.2C73.0501 32.2 75.2801 32.27 77.1201 32.42C78.9601 32.57 80.4701 32.91 81.6401 33.46C82.8101 34 83.6601 34.82 84.1901 35.9C84.7201 36.98 84.9801 38.46 84.9801 40.33C84.9801 42.01 84.9401 43.46 84.8801 44.68C84.8101 45.9 84.6301 46.94 84.3401 47.81C84.0501 48.68 83.5901 49.39 82.9801 49.94C82.3701 50.5 81.5201 50.93 80.4301 51.24C79.3401 51.55 77.9801 51.76 76.3501 51.87C74.7201 51.98 72.7301 52.03 70.3901 52.03C68.0501 52.03 65.9001 51.95 64.2001 51.81C62.5001 51.66 61.1201 51.3 60.0601 50.71C59.0001 50.13 58.2301 49.27 57.7401 48.13C57.2501 46.99 57.0101 45.42 57.0101 43.42M64.2801 42.19C64.2801 43.27 64.37 44.13 64.55 44.75C64.73 45.37 65.07 45.83 65.55 46.13C66.04 46.43 66.71 46.62 67.58 46.7C68.44 46.78 69.5601 46.82 70.9301 46.82C72.4901 46.82 73.72 46.77 74.61 46.66C75.5 46.55 76.1801 46.32 76.6401 45.97C77.1001 45.62 77.3901 45.12 77.5201 44.49C77.6401 43.85 77.7101 43.01 77.7101 41.95C77.7101 41.05 77.6501 40.32 77.5401 39.73C77.4301 39.15 77.1401 38.69 76.6801 38.35C76.2201 38.01 75.53 37.77 74.61 37.62C73.69 37.47 72.42 37.4 70.8 37.4C69.4 37.4 68.2801 37.47 67.4301 37.6C66.5801 37.74 65.9201 37.98 65.4601 38.33C65.0001 38.68 64.6901 39.17 64.5201 39.79C64.35 40.41 64.2701 41.21 64.2701 42.19H64.2801Z" fill="white"/>
<path d="M95.8301 25.03H106.95V26.61C106.95 28.18 105.64 29.46 104.02 29.46H95.8301V25.03Z" fill="white"/>
<path d="M116.37 60.84C112.37 60.84 109.13 57.69 109.13 53.81V47.64C108.74 48.37 108.33 48.98 107.9 49.47C107.47 49.96 106.93 50.35 106.29 50.65C105.65 50.95 104.87 51.16 103.95 51.3C103.03 51.44 101.89 51.5 100.52 51.5C98.34 51.5 96.47 51.4 94.91 51.19C93.35 50.99 92.07 50.58 91.08 49.97C90.09 49.36 89.36 48.48 88.88 47.33C88.41 46.18 88.17 44.67 88.17 42.8C88.17 42.2 88.2 41.51 88.25 40.71C88.31 39.91 88.36 39.05 88.42 38.13C88.64 34.2 92.12 32.24 98.84 32.24C100.51 32.24 101.91 32.25 103.02 32.28C104.14 32.31 105.08 32.44 105.84 32.69C106.61 32.93 107.24 33.33 107.74 33.87C108.24 34.41 108.7 35.19 109.12 36.19V32.65H116.36V60.86L116.37 60.84ZM95.58 41.82C95.58 42.8 95.64 43.58 95.77 44.16C95.89 44.74 96.19 45.2 96.65 45.52C97.11 45.84 97.79 46.05 98.68 46.15C99.57 46.25 100.77 46.29 102.28 46.29C103.54 46.29 104.59 46.25 105.44 46.17C106.29 46.09 106.98 45.92 107.51 45.66C108.04 45.4 108.42 45.04 108.66 44.58C108.9 44.12 109.02 43.52 109.02 42.79C109.02 41.54 108.96 40.56 108.85 39.84C108.74 39.12 108.44 38.58 107.95 38.21C107.46 37.84 106.73 37.62 105.75 37.54C104.77 37.46 103.43 37.42 101.73 37.42C100.36 37.42 99.27 37.48 98.47 37.58C97.66 37.69 97.04 37.9 96.61 38.21C96.18 38.52 95.9 38.97 95.77 39.55C95.64 40.13 95.58 40.89 95.58 41.81V41.82Z" fill="white"/>
<path d="M139.38 48.53C139.13 49.21 138.79 49.77 138.36 50.22C137.93 50.67 137.37 51.03 136.69 51.3C136.01 51.57 135.18 51.76 134.2 51.87C133.22 51.98 132.05 52.03 130.69 52.03C128.77 52.03 127.13 51.97 125.79 51.85C124.45 51.73 123.38 51.44 122.57 51C121.76 50.55 121.17 49.9 120.81 49.05C120.45 48.2 120.27 47.05 120.27 45.61C120.27 44.17 120.51 43 120.98 42.18C121.45 41.35 122.15 40.74 123.07 40.33C123.99 39.92 125.13 39.67 126.5 39.58C127.87 39.49 129.43 39.44 131.19 39.44H134.16C135 39.44 135.73 39.49 136.36 39.6C136.99 39.71 137.54 39.9 138.01 40.19C138.48 40.47 138.94 40.9 139.39 41.47V39.4C139.39 38.64 139.29 38.06 139.1 37.67C138.9 37.28 138.53 36.98 137.97 36.8C137.41 36.61 136.64 36.5 135.65 36.48C134.66 36.45 133.38 36.44 131.82 36.44C130.54 36.44 129.64 36.53 129.12 36.7C128.6 36.88 128.33 37.32 128.3 38.02H121.1C121.13 36.72 121.43 35.68 122 34.91C122.57 34.14 123.46 33.56 124.68 33.16C125.89 32.77 127.46 32.52 129.37 32.41C131.28 32.3 133.6 32.25 136.34 32.25C138.15 32.25 139.72 32.35 141.05 32.53C142.38 32.72 143.46 33.06 144.31 33.55C145.16 34.04 145.79 34.71 146.19 35.56C146.59 36.41 146.8 37.51 146.8 38.83V51.64H139.39V48.55L139.38 48.53ZM127.38 45.36C127.38 45.9 127.5 46.32 127.74 46.62C127.98 46.92 128.31 47.13 128.74 47.27C129.17 47.41 129.7 47.49 130.33 47.51C130.96 47.54 131.65 47.55 132.4 47.55C133.71 47.55 134.81 47.53 135.71 47.49C136.6 47.45 137.33 47.35 137.89 47.19C138.45 47.03 138.85 46.8 139.08 46.5C139.32 46.2 139.44 45.8 139.44 45.28C139.44 44.76 139.33 44.42 139.11 44.16C138.89 43.9 138.54 43.71 138.06 43.59C137.59 43.47 136.99 43.39 136.28 43.37C135.57 43.34 134.71 43.33 133.71 43.33C132.76 43.33 131.9 43.34 131.12 43.37C130.34 43.4 129.68 43.47 129.13 43.59C128.59 43.71 128.16 43.91 127.85 44.18C127.54 44.45 127.39 44.84 127.39 45.36H127.38Z" fill="white"/>
<path d="M158.63 36.54C158.91 35.73 159.26 35.04 159.7 34.49C160.13 33.94 160.72 33.5 161.46 33.17C162.2 32.85 163.12 32.61 164.22 32.46C165.32 32.31 166.68 32.24 168.3 32.24C170.87 32.24 172.92 32.65 174.45 33.46C175.98 34.27 177.04 35.53 177.63 37.24C177.85 37.94 177.99 38.66 178.03 39.39C178.07 40.12 178.09 40.88 178.09 41.67V51.63H170.68V41.67C170.68 40.83 170.6 40.15 170.45 39.62C170.3 39.09 170.01 38.68 169.59 38.38C169.17 38.08 168.58 37.88 167.81 37.77C167.04 37.66 166.03 37.61 164.78 37.61C163.41 37.61 162.32 37.73 161.52 37.96C160.71 38.19 160.09 38.53 159.66 39C159.23 39.46 158.95 40.04 158.82 40.73C158.69 41.42 158.63 42.23 158.63 43.15V51.65H151.39V32.67H158.63V36.57V36.54Z" fill="white"/>
<path d="M190.14 24.51V51.62H182.73V31.7C182.73 27.73 186.05 24.5 190.14 24.5" fill="white"/>
<path d="M201.39 44.14C201.39 44.84 201.47 45.41 201.64 45.85C201.81 46.28 202.1 46.63 202.52 46.89C202.94 47.15 203.5 47.32 204.19 47.42C204.89 47.51 205.77 47.56 206.83 47.56C208.2 47.56 209.3 47.56 210.16 47.54C211.01 47.53 211.67 47.45 212.15 47.31C212.62 47.18 212.94 46.96 213.11 46.66C213.28 46.36 213.37 45.94 213.4 45.4H220.55C220.55 46.67 220.35 47.74 219.94 48.59C219.54 49.44 218.89 50.13 218.02 50.64C217.14 51.15 216.01 51.51 214.63 51.72C213.25 51.92 211.58 52.03 209.63 52.03C206.84 52.03 204.46 51.95 202.5 51.79C200.53 51.63 198.93 51.23 197.69 50.61C196.45 49.99 195.54 49.07 194.97 47.85C194.4 46.63 194.11 44.96 194.11 42.85C194.11 40.33 194.33 38.37 194.76 36.95C195.19 35.54 195.97 34.49 197.08 33.8C198.2 33.11 199.71 32.68 201.62 32.52C203.53 32.36 205.96 32.28 208.92 32.28C211.18 32.28 213.08 32.4 214.63 32.65C216.18 32.89 217.38 33.38 218.25 34.11C218.92 34.68 219.41 35.29 219.71 35.94C220.02 36.59 220.23 37.3 220.34 38.07C220.45 38.84 220.51 39.67 220.51 40.55C220.51 41.43 220.52 42.39 220.55 43.42H201.39V44.15V44.14ZM213.44 39.79V39.22C213.44 38.57 213.34 38.06 213.13 37.69C212.92 37.32 212.59 37.05 212.13 36.88C211.67 36.71 211.08 36.59 210.37 36.53C209.66 36.48 208.8 36.45 207.8 36.45C206.8 36.45 205.85 36.47 205.06 36.51C204.26 36.55 203.6 36.67 203.05 36.86C202.51 37.05 202.09 37.33 201.82 37.69C201.54 38.06 201.4 38.58 201.4 39.26V39.79H213.45H213.44Z" fill="white"/>
<path fill-rule="evenodd" clip-rule="evenodd" d="M38.1301 76.2C38.1301 77.5 39.21 78.55 40.55 78.55C41.89 78.55 42.9701 77.5 42.9701 76.2C42.9701 74.9 41.89 73.85 40.55 73.85C39.21 73.85 38.1301 74.9 38.1301 76.2ZM31.6001 75.24C31.3701 76.52 32.2501 77.74 33.5601 77.96C34.8801 78.19 36.1301 77.33 36.3701 76.05C36.6001 74.77 35.7201 73.55 34.4101 73.33C34.2701 73.31 34.1301 73.29 33.9901 73.29C32.84 73.29 31.82 74.09 31.61 75.24H31.6001ZM46.7001 73.33C45.3801 73.56 44.5 74.78 44.7401 76.05C44.9701 77.33 46.2301 78.18 47.5401 77.96C48.8601 77.73 49.7401 76.51 49.5001 75.24C49.2901 74.1 48.2701 73.29 47.1201 73.29C46.9801 73.29 46.8401 73.3 46.7001 73.33ZM25.3501 73.18C24.8901 74.4 25.54 75.75 26.8 76.2C28.06 76.64 29.4501 76.01 29.9001 74.79C30.3601 73.57 29.7101 72.22 28.4501 71.77C28.1801 71.67 27.9001 71.63 27.6201 71.63C26.6301 71.63 25.7001 72.22 25.3501 73.18ZM52.6501 71.78C51.3901 72.22 50.7501 73.57 51.2001 74.8C51.6601 76.02 53.05 76.65 54.3 76.21C55.56 75.77 56.2001 74.42 55.7501 73.19C55.3901 72.23 54.4601 71.64 53.4701 71.64C53.1901 71.64 52.9201 71.69 52.6401 71.78H52.6501ZM19.55 70.1C18.88 71.23 19.2801 72.66 20.4401 73.31C21.6001 73.96 23.0801 73.57 23.7501 72.45C24.4201 71.32 24.02 69.89 22.86 69.24C22.48 69.03 22.0601 68.92 21.6501 68.92C20.8101 68.92 20 69.34 19.55 70.1ZM58.2401 69.24C57.0801 69.89 56.6801 71.33 57.3501 72.45C58.0201 73.58 59.5001 73.96 60.6601 73.31C61.8201 72.66 62.21 71.22 61.55 70.1C61.1 69.35 60.2901 68.92 59.4501 68.92C59.0401 68.92 58.6201 69.02 58.2401 69.24ZM36.61 69.65C36.54 70.5 37.2001 71.24 38.0701 71.3C38.9401 71.36 39.7001 70.73 39.7701 69.88C39.84 69.03 39.1801 68.29 38.3101 68.23C38.2701 68.23 38.2301 68.23 38.1901 68.23C37.3701 68.23 36.67 68.85 36.61 69.65ZM43.4801 68.17C42.6101 68.25 41.9701 69.01 42.0601 69.85C42.1501 70.7 42.9201 71.31 43.7901 71.23C44.6601 71.15 45.3001 70.39 45.2101 69.55C45.1301 68.76 44.4401 68.16 43.6401 68.16C43.5901 68.16 43.5301 68.16 43.4801 68.16V68.17ZM31.2701 68.52C31.0501 69.34 31.5701 70.18 32.4101 70.39C33.2601 70.6 34.1201 70.1 34.3401 69.28C34.5601 68.46 34.0401 67.62 33.2001 67.41C33.0701 67.38 32.9401 67.36 32.8101 67.36C32.1001 67.36 31.4601 67.82 31.2801 68.52H31.2701ZM48.5701 67.24C47.7301 67.47 47.2401 68.32 47.4701 69.14C47.7101 69.96 48.5801 70.44 49.4201 70.21C50.2601 69.98 50.75 69.13 50.5201 68.31C50.32 67.63 49.6901 67.19 48.9901 67.19C48.8501 67.19 48.7001 67.21 48.5601 67.25L48.5701 67.24ZM26.2201 66.52C25.8601 67.29 26.2201 68.21 27.0101 68.56C27.8101 68.91 28.75 68.56 29.11 67.79C29.47 67.01 29.1101 66.1 28.3201 65.75C28.1101 65.66 27.8901 65.61 27.6701 65.61C27.0701 65.61 26.4901 65.95 26.2301 66.52H26.2201ZM53.4101 65.46C52.6201 65.83 52.2901 66.75 52.6701 67.51C53.0501 68.28 54.0001 68.6 54.7901 68.23C55.5801 67.86 55.9101 66.94 55.5301 66.18C55.2601 65.63 54.6901 65.31 54.1001 65.31C53.8701 65.31 53.6401 65.36 53.4101 65.46ZM14.3901 66.1C13.5301 67.1 13.6601 68.58 14.6901 69.41C15.7101 70.25 17.2401 70.12 18.1001 69.12C18.9601 68.12 18.83 66.64 17.8 65.81C17.35 65.44 16.7901 65.26 16.2501 65.26C15.5601 65.26 14.8701 65.55 14.3901 66.1ZM21.61 63.69C21.12 64.39 21.3001 65.35 22.0301 65.83C22.7501 66.31 23.7401 66.13 24.2301 65.43C24.7201 64.73 24.5401 63.77 23.8101 63.29C23.5401 63.11 23.2301 63.02 22.9201 63.02C22.4101 63.02 21.92 63.25 21.61 63.69ZM10.0301 61.28C9.01006 62.11 8.87007 63.6 9.73007 64.59C10.5901 65.58 12.1201 65.71 13.1401 64.88C14.1601 64.04 14.3001 62.56 13.4401 61.57C12.9601 61.02 12.28 60.73 11.58 60.73C11.03 60.73 10.4801 60.91 10.0201 61.28H10.0301ZM17.5601 60.12C16.9501 60.73 16.9601 61.7 17.5901 62.3C18.2201 62.89 19.22 62.88 19.83 62.28C20.44 61.67 20.43 60.7 19.8 60.1C19.49 59.81 19.0901 59.66 18.6901 59.66C18.2901 59.66 17.8701 59.81 17.5601 60.12ZM14.2201 55.93C13.5101 56.43 13.35 57.39 13.86 58.08C14.37 58.77 15.3601 58.93 16.0701 58.43C16.7801 57.93 16.9401 56.97 16.4301 56.28C16.1201 55.86 15.6301 55.64 15.1401 55.64C14.8201 55.64 14.5001 55.73 14.2201 55.93ZM6.60007 55.8C5.44007 56.45 5.04005 57.89 5.71005 59.01C6.38005 60.14 7.86005 60.52 9.02005 59.87C10.18 59.22 10.5801 57.78 9.91006 56.66C9.46006 55.91 8.65006 55.48 7.81006 55.48C7.40006 55.48 6.98007 55.58 6.60007 55.8ZM11.6801 51.24C10.8901 51.61 10.5601 52.53 10.9401 53.29C11.3201 54.06 12.27 54.38 13.05 54.01C13.84 53.64 14.1701 52.72 13.7901 51.96C13.5201 51.41 12.95 51.09 12.36 51.09C12.13 51.09 11.9001 51.14 11.6801 51.24ZM4.20007 49.82C2.94007 50.26 2.30006 51.61 2.75006 52.84C3.21006 54.06 4.60007 54.69 5.85007 54.25C7.11007 53.81 7.75005 52.46 7.30005 51.24C6.94005 50.28 6.01005 49.69 5.02005 49.69C4.75005 49.69 4.47006 49.74 4.19006 49.83L4.20007 49.82ZM10.0101 46.19C9.17007 46.42 8.68007 47.27 8.91006 48.09C9.15006 48.91 10.02 49.39 10.86 49.16C11.7 48.93 12.1901 48.08 11.9601 47.26C11.7601 46.58 11.1301 46.14 10.4401 46.14C10.3001 46.14 10.1501 46.16 10.0101 46.2V46.19ZM2.90005 43.53C1.58005 43.76 0.700063 44.97 0.940063 46.25C1.17006 47.53 2.43005 48.38 3.74005 48.16C5.06005 47.93 5.94007 46.71 5.70007 45.43C5.49007 44.29 4.47007 43.49 3.32007 43.49C3.18007 43.49 3.04006 43.5 2.90005 43.53ZM9.28006 40.94C8.41006 41.02 7.77005 41.78 7.86005 42.62C7.95005 43.47 8.72006 44.08 9.59006 44C10.4601 43.92 11.1001 43.16 11.0101 42.32C10.9301 41.53 10.2401 40.93 9.43005 40.93C9.38005 40.93 9.32005 40.93 9.27005 40.93L9.28006 40.94ZM0.320068 39.47C0.320068 40.77 1.40005 41.82 2.74005 41.82C4.08005 41.82 5.16006 40.77 5.16006 39.47C5.16006 38.17 4.08005 37.12 2.74005 37.12C1.40005 37.12 0.320068 38.17 0.320068 39.47ZM7.79007 37.06C7.72007 37.91 8.38006 38.65 9.25006 38.71C10.1201 38.77 10.8801 38.14 10.9501 37.29C11.0201 36.44 10.3601 35.7 9.49005 35.64C9.45005 35.64 9.41006 35.64 9.37006 35.64C8.55006 35.64 7.85007 36.26 7.79007 37.06ZM0.930054 32.68C0.700054 33.96 1.58008 35.18 2.89008 35.41C4.21008 35.64 5.46006 34.78 5.69006 33.5C5.92006 32.22 5.04007 31 3.73007 30.77C3.59007 30.75 3.45006 30.73 3.31006 30.73C2.16006 30.73 1.14005 31.53 0.930054 32.67V32.68ZM8.72006 31.57C8.50006 32.39 9.02005 33.23 9.86005 33.44C10.71 33.65 11.5701 33.15 11.7901 32.33C12.0101 31.51 11.4901 30.67 10.6501 30.46C10.5201 30.43 10.3901 30.41 10.2601 30.41C9.55007 30.41 8.91007 30.87 8.73007 31.57H8.72006ZM10.61 26.32C10.25 27.1 10.6101 28.01 11.4001 28.36C12.2001 28.71 13.1401 28.36 13.5001 27.59C13.8601 26.81 13.5001 25.9 12.7101 25.55C12.5001 25.46 12.2801 25.41 12.0601 25.41C11.4601 25.41 10.88 25.75 10.61 26.31V26.32ZM2.75006 26.1C2.29006 27.32 2.94007 28.67 4.20007 29.11C5.46007 29.55 6.85005 28.93 7.30005 27.7C7.76005 26.48 7.11007 25.13 5.85007 24.69C5.58007 24.59 5.30005 24.55 5.02005 24.55C4.03005 24.55 3.10005 25.14 2.74005 26.1H2.75006ZM13.4201 21.46C12.9301 22.16 13.1101 23.12 13.8401 23.6C14.5601 24.08 15.5501 23.9 16.0401 23.2C16.5301 22.5 16.3501 21.54 15.6301 21.06C15.3601 20.88 15.0501 20.79 14.7401 20.79C14.2301 20.79 13.7401 21.03 13.4301 21.46H13.4201ZM5.71005 19.93C5.04005 21.05 5.44007 22.49 6.60007 23.14C7.76007 23.79 9.24006 23.4 9.91006 22.28C10.5801 21.15 10.18 19.72 9.02005 19.07C8.64005 18.86 8.22006 18.75 7.81006 18.75C6.97006 18.75 6.16005 19.17 5.71005 19.93ZM17.05 17.16C16.44 17.77 16.45 18.74 17.08 19.34C17.71 19.93 18.7101 19.92 19.3201 19.32C19.9301 18.71 19.9201 17.74 19.2901 17.14C18.9801 16.85 18.5801 16.7 18.1801 16.7C17.7801 16.7 17.36 16.85 17.05 17.16ZM9.73007 14.34C8.87007 15.34 9.00006 16.82 10.0301 17.65C11.0501 18.48 12.5801 18.35 13.4401 17.36C14.3001 16.36 14.1701 14.88 13.1401 14.05C12.6901 13.68 12.1301 13.5 11.5901 13.5C10.9001 13.5 10.2101 13.79 9.73007 14.34ZM21.3901 13.53C20.6801 14.03 20.5201 14.99 21.0301 15.68C21.5401 16.37 22.5301 16.53 23.2401 16.03C23.9501 15.53 24.1101 14.57 23.6001 13.88C23.2901 13.46 22.8001 13.24 22.3101 13.24C21.9901 13.24 21.6701 13.33 21.3901 13.53ZM56.8801 13.51C56.3901 14.21 56.57 15.17 57.3 15.65C58.0201 16.13 59.0101 15.95 59.5001 15.25C59.9901 14.55 59.8101 13.59 59.0901 13.11C58.8201 12.93 58.5001 12.84 58.2001 12.84C57.6901 12.84 57.2001 13.08 56.8901 13.51H56.8801ZM26.3201 10.7C25.5301 11.07 25.2 11.99 25.58 12.75C25.96 13.52 26.9101 13.84 27.7001 13.47C28.4901 13.1 28.8201 12.18 28.4401 11.42C28.1701 10.87 27.6001 10.55 27.0101 10.55C26.7801 10.55 26.5501 10.6 26.3201 10.7ZM51.9901 11.15C51.6301 11.93 51.9901 12.84 52.7801 13.19C53.5801 13.54 54.5201 13.19 54.8801 12.42C55.2401 11.65 54.8801 10.73 54.0901 10.38C53.8801 10.29 53.6601 10.24 53.4401 10.24C52.8401 10.24 52.2601 10.58 51.9901 11.15ZM14.6901 9.53C13.6701 10.37 13.5301 11.85 14.3901 12.85C15.2501 13.84 16.78 13.97 17.8 13.14C18.82 12.31 18.9601 10.82 18.1001 9.83C17.6201 9.27 16.9301 8.99001 16.2401 8.99001C15.6901 8.99001 15.1401 9.16999 14.6901 9.53999V9.53ZM63.0001 9.82001C62.1401 10.82 62.2701 12.3 63.3 13.13C64.32 13.97 65.8501 13.84 66.7101 12.84C67.5701 11.84 67.4401 10.36 66.4101 9.52C65.9601 9.15 65.4 8.97 64.86 8.97C64.17 8.97 63.4801 9.26 63.0001 9.81V9.82001ZM31.6801 8.73C30.8401 8.96 30.35 9.81001 30.58 10.63C30.82 11.45 31.6901 11.93 32.5301 11.7C33.3701 11.47 33.8701 10.62 33.6301 9.8C33.4301 9.12 32.8 8.67999 32.11 8.67999C31.97 8.67999 31.8201 8.70001 31.6801 8.74001V8.73ZM46.7601 9.64999C46.5401 10.47 47.0601 11.31 47.9001 11.52C48.7501 11.73 49.61 11.23 49.83 10.41C50.05 9.59 49.5301 8.74999 48.6901 8.53999C48.5601 8.50999 48.43 8.49001 48.3 8.49001C47.59 8.49001 46.9501 8.94999 46.7701 9.64999H46.7601ZM37.3101 7.7C36.4401 7.78 35.8001 8.54 35.8901 9.38C35.9801 10.23 36.7501 10.84 37.6201 10.76C38.4901 10.68 39.1301 9.92 39.0401 9.08C38.9601 8.29 38.2701 7.69 37.4701 7.69C37.4201 7.69 37.3601 7.69 37.3101 7.69V7.7ZM41.33 9.06C41.26 9.91 41.9201 10.65 42.7901 10.71C43.6601 10.78 44.4201 10.14 44.4901 9.28999C44.5601 8.43999 43.9001 7.7 43.0301 7.64C42.9901 7.64 42.9501 7.64 42.9101 7.64C42.0901 7.64 41.39 8.25 41.33 9.06ZM20.4401 5.62C19.2801 6.27 18.88 7.71 19.55 8.83C20.22 9.95 21.7 10.34 22.86 9.69C24.02 9.04 24.4101 7.6 23.7501 6.48C23.3001 5.73 22.4901 5.3 21.6501 5.3C21.2401 5.3 20.8201 5.4 20.4401 5.62ZM57.36 6.48C56.69 7.6 57.0901 9.04 58.2501 9.69C59.4101 10.34 60.8901 9.95 61.5601 8.83C62.2301 7.7 61.8301 6.27 60.6701 5.62C60.2901 5.41 59.8701 5.3 59.4601 5.3C58.6201 5.3 57.81 5.72 57.36 6.48ZM26.7901 2.74001C25.5301 3.18001 24.8901 4.53 25.3401 5.75C25.8001 6.97 27.1901 7.6 28.4401 7.16C29.7001 6.72 30.3401 5.36999 29.8901 4.14999C29.5301 3.18999 28.6 2.60001 27.61 2.60001C27.33 2.60001 27.0601 2.65001 26.7801 2.74001H26.7901ZM51.2101 4.14999C50.7501 5.36999 51.4001 6.72 52.6601 7.16C53.9201 7.6 55.3101 6.98 55.7601 5.75C56.2201 4.53 55.5701 3.18001 54.3101 2.74001C54.0401 2.64001 53.7601 2.60001 53.4801 2.60001C52.4901 2.60001 51.5601 3.18999 51.2101 4.14999ZM33.5601 0.979996C32.2401 1.21 31.3601 2.43001 31.6001 3.71001C31.8301 4.99001 33.0901 5.83999 34.4101 5.62C35.7301 5.39 36.6001 4.18 36.3701 2.89C36.1601 1.75 35.1401 0.949997 33.9901 0.949997C33.8501 0.949997 33.7101 0.960006 33.5701 0.990005L33.5601 0.979996ZM44.7301 2.88C44.5001 4.16 45.3801 5.38 46.6901 5.61C48.0101 5.84 49.2601 4.98 49.4901 3.7C49.7201 2.42 48.8401 1.2 47.5301 0.970001C47.3901 0.950001 47.25 0.929993 47.11 0.929993C45.96 0.929993 44.9401 1.73 44.7301 2.87V2.88ZM38.1301 2.74001C38.1301 4.04001 39.21 5.09 40.55 5.09C41.89 5.09 42.9701 4.04001 42.9701 2.74001C42.9701 1.44001 41.89 0.389999 40.55 0.389999C39.21 0.389999 38.1301 1.44001 38.1301 2.74001Z" fill="white"/>
<mask id="mask0_2_56" style="mask-type:luminance" maskUnits="userSpaceOnUse" x="0" y="0" width="68" height="79">
<path d="M38.1301 76.2C38.1301 77.5 39.21 78.55 40.55 78.55C41.89 78.55 42.9701 77.5 42.9701 76.2C42.9701 74.9 41.89 73.85 40.55 73.85C39.21 73.85 38.1301 74.9 38.1301 76.2ZM31.6001 75.24C31.3701 76.52 32.2501 77.74 33.5601 77.96C34.8801 78.19 36.1301 77.33 36.3701 76.05C36.6001 74.77 35.7201 73.55 34.4101 73.33C34.2701 73.31 34.1301 73.29 33.9901 73.29C32.84 73.29 31.82 74.09 31.61 75.24H31.6001ZM46.7001 73.33C45.3801 73.56 44.5 74.78 44.7401 76.05C44.9701 77.33 46.2301 78.18 47.5401 77.96C48.8601 77.73 49.7401 76.51 49.5001 75.24C49.2901 74.1 48.2701 73.29 47.1201 73.29C46.9801 73.29 46.8401 73.3 46.7001 73.33ZM25.3501 73.18C24.8901 74.4 25.54 75.75 26.8 76.2C28.06 76.64 29.4501 76.01 29.9001 74.79C30.3601 73.57 29.7101 72.22 28.4501 71.77C28.1801 71.67 27.9001 71.63 27.6201 71.63C26.6301 71.63 25.7001 72.22 25.3501 73.18ZM52.6501 71.78C51.3901 72.22 50.7501 73.57 51.2001 74.8C51.6601 76.02 53.05 76.65 54.3 76.21C55.56 75.77 56.2001 74.42 55.7501 73.19C55.3901 72.23 54.4601 71.64 53.4701 71.64C53.1901 71.64 52.9201 71.69 52.6401 71.78H52.6501ZM19.55 70.1C18.88 71.23 19.2801 72.66 20.4401 73.31C21.6001 73.96 23.0801 73.57 23.7501 72.45C24.4201 71.32 24.02 69.89 22.86 69.24C22.48 69.03 22.0601 68.92 21.6501 68.92C20.8101 68.92 20 69.34 19.55 70.1ZM58.2401 69.24C57.0801 69.89 56.6801 71.33 57.3501 72.45C58.0201 73.58 59.5001 73.96 60.6601 73.31C61.8201 72.66 62.21 71.22 61.55 70.1C61.1 69.35 60.2901 68.92 59.4501 68.92C59.0401 68.92 58.6201 69.02 58.2401 69.24ZM36.61 69.65C36.54 70.5 37.2001 71.24 38.0701 71.3C38.9401 71.36 39.7001 70.73 39.7701 69.88C39.84 69.03 39.1801 68.29 38.3101 68.23C38.2701 68.23 38.2301 68.23 38.1901 68.23C37.3701 68.23 36.67 68.85 36.61 69.65ZM43.4801 68.17C42.6101 68.25 41.9701 69.01 42.0601 69.85C42.1501 70.7 42.9201 71.31 43.7901 71.23C44.6601 71.15 45.3001 70.39 45.2101 69.55C45.1301 68.76 44.4401 68.16 43.6401 68.16C43.5901 68.16 43.5301 68.16 43.4801 68.16V68.17ZM31.2701 68.52C31.0501 69.34 31.5701 70.18 32.4101 70.39C33.2601 70.6 34.1201 70.1 34.3401 69.28C34.5601 68.46 34.0401 67.62 33.2001 67.41C33.0701 67.38 32.9401 67.36 32.8101 67.36C32.1001 67.36 31.4601 67.82 31.2801 68.52H31.2701ZM48.5701 67.24C47.7301 67.47 47.2401 68.32 47.4701 69.14C47.7101 69.96 48.5801 70.44 49.4201 70.21C50.2601 69.98 50.75 69.13 50.5201 68.31C50.32 67.63 49.6901 67.19 48.9901 67.19C48.8501 67.19 48.7001 67.21 48.5601 67.25L48.5701 67.24ZM26.2201 66.52C25.8601 67.29 26.2201 68.21 27.0101 68.56C27.8101 68.91 28.75 68.56 29.11 67.79C29.47 67.01 29.1101 66.1 28.3201 65.75C28.1101 65.66 27.8901 65.61 27.6701 65.61C27.0701 65.61 26.4901 65.95 26.2301 66.52H26.2201ZM53.4101 65.46C52.6201 65.83 52.2901 66.75 52.6701 67.51C53.0501 68.28 54.0001 68.6 54.7901 68.23C55.5801 67.86 55.9101 66.94 55.5301 66.18C55.2601 65.63 54.6901 65.31 54.1001 65.31C53.8701 65.31 53.6401 65.36 53.4101 65.46ZM14.3901 66.1C13.5301 67.1 13.6601 68.58 14.6901 69.41C15.7101 70.25 17.2401 70.12 18.1001 69.12C18.9601 68.12 18.83 66.64 17.8 65.81C17.35 65.44 16.7901 65.26 16.2501 65.26C15.5601 65.26 14.8701 65.55 14.3901 66.1ZM21.61 63.69C21.12 64.39 21.3001 65.35 22.0301 65.83C22.7501 66.31 23.7401 66.13 24.2301 65.43C24.7201 64.73 24.5401 63.77 23.8101 63.29C23.5401 63.11 23.2301 63.02 22.9201 63.02C22.4101 63.02 21.92 63.25 21.61 63.69ZM10.0301 61.28C9.01006 62.11 8.87007 63.6 9.73007 64.59C10.5901 65.58 12.1201 65.71 13.1401 64.88C14.1601 64.04 14.3001 62.56 13.4401 61.57C12.9601 61.02 12.28 60.73 11.58 60.73C11.03 60.73 10.4801 60.91 10.0201 61.28H10.0301ZM17.5601 60.12C16.9501 60.73 16.9601 61.7 17.5901 62.3C18.2201 62.89 19.22 62.88 19.83 62.28C20.44 61.67 20.43 60.7 19.8 60.1C19.49 59.81 19.0901 59.66 18.6901 59.66C18.2901 59.66 17.8701 59.81 17.5601 60.12ZM14.2201 55.93C13.5101 56.43 13.35 57.39 13.86 58.08C14.37 58.77 15.3601 58.93 16.0701 58.43C16.7801 57.93 16.9401 56.97 16.4301 56.28C16.1201 55.86 15.6301 55.64 15.1401 55.64C14.8201 55.64 14.5001 55.73 14.2201 55.93ZM6.60007 55.8C5.44007 56.45 5.04005 57.89 5.71005 59.01C6.38005 60.14 7.86005 60.52 9.02005 59.87C10.18 59.22 10.5801 57.78 9.91006 56.66C9.46006 55.91 8.65006 55.48 7.81006 55.48C7.40006 55.48 6.98007 55.58 6.60007 55.8ZM11.6801 51.24C10.8901 51.61 10.5601 52.53 10.9401 53.29C11.3201 54.06 12.27 54.38 13.05 54.01C13.84 53.64 14.1701 52.72 13.7901 51.96C13.5201 51.41 12.95 51.09 12.36 51.09C12.13 51.09 11.9001 51.14 11.6801 51.24ZM4.20007 49.82C2.94007 50.26 2.30006 51.61 2.75006 52.84C3.21006 54.06 4.60007 54.69 5.85007 54.25C7.11007 53.81 7.75005 52.46 7.30005 51.24C6.94005 50.28 6.01005 49.69 5.02005 49.69C4.75005 49.69 4.47006 49.74 4.19006 49.83L4.20007 49.82ZM10.0101 46.19C9.17007 46.42 8.68007 47.27 8.91006 48.09C9.15006 48.91 10.02 49.39 10.86 49.16C11.7 48.93 12.1901 48.08 11.9601 47.26C11.7601 46.58 11.1301 46.14 10.4401 46.14C10.3001 46.14 10.1501 46.16 10.0101 46.2V46.19ZM2.90005 43.53C1.58005 43.76 0.700063 44.97 0.940063 46.25C1.17006 47.53 2.43005 48.38 3.74005 48.16C5.06005 47.93 5.94007 46.71 5.70007 45.43C5.49007 44.29 4.47007 43.49 3.32007 43.49C3.18007 43.49 3.04006 43.5 2.90005 43.53ZM9.28006 40.94C8.41006 41.02 7.77005 41.78 7.86005 42.62C7.95005 43.47 8.72006 44.08 9.59006 44C10.4601 43.92 11.1001 43.16 11.0101 42.32C10.9301 41.53 10.2401 40.93 9.43005 40.93C9.38005 40.93 9.32005 40.93 9.27005 40.93L9.28006 40.94ZM0.320068 39.47C0.320068 40.77 1.40005 41.82 2.74005 41.82C4.08005 41.82 5.16006 40.77 5.16006 39.47C5.16006 38.17 4.08005 37.12 2.74005 37.12C1.40005 37.12 0.320068 38.17 0.320068 39.47ZM7.79007 37.06C7.72007 37.91 8.38006 38.65 9.25006 38.71C10.1201 38.77 10.8801 38.14 10.9501 37.29C11.0201 36.44 10.3601 35.7 9.49005 35.64C9.45005 35.64 9.41006 35.64 9.37006 35.64C8.55006 35.64 7.85007 36.26 7.79007 37.06ZM0.930054 32.68C0.700054 33.96 1.58008 35.18 2.89008 35.41C4.21008 35.64 5.46006 34.78 5.69006 33.5C5.92006 32.22 5.04007 31 3.73007 30.77C3.59007 30.75 3.45006 30.73 3.31006 30.73C2.16006 30.73 1.14005 31.53 0.930054 32.67V32.68ZM8.72006 31.57C8.50006 32.39 9.02005 33.23 9.86005 33.44C10.71 33.65 11.5701 33.15 11.7901 32.33C12.0101 31.51 11.4901 30.67 10.6501 30.46C10.5201 30.43 10.3901 30.41 10.2601 30.41C9.55007 30.41 8.91007 30.87 8.73007 31.57H8.72006ZM10.61 26.32C10.25 27.1 10.6101 28.01 11.4001 28.36C12.2001 28.71 13.1401 28.36 13.5001 27.59C13.8601 26.81 13.5001 25.9 12.7101 25.55C12.5001 25.46 12.2801 25.41 12.0601 25.41C11.4601 25.41 10.88 25.75 10.61 26.31V26.32ZM2.75006 26.1C2.29006 27.32 2.94007 28.67 4.20007 29.11C5.46007 29.55 6.85005 28.93 7.30005 27.7C7.76005 26.48 7.11007 25.13 5.85007 24.69C5.58007 24.59 5.30005 24.55 5.02005 24.55C4.03005 24.55 3.10005 25.14 2.74005 26.1H2.75006ZM13.4201 21.46C12.9301 22.16 13.1101 23.12 13.8401 23.6C14.5601 24.08 15.5501 23.9 16.0401 23.2C16.5301 22.5 16.3501 21.54 15.6301 21.06C15.3601 20.88 15.0501 20.79 14.7401 20.79C14.2301 20.79 13.7401 21.03 13.4301 21.46H13.4201ZM5.71005 19.93C5.04005 21.05 5.44007 22.49 6.60007 23.14C7.76007 23.79 9.24006 23.4 9.91006 22.28C10.5801 21.15 10.18 19.72 9.02005 19.07C8.64005 18.86 8.22006 18.75 7.81006 18.75C6.97006 18.75 6.16005 19.17 5.71005 19.93ZM17.05 17.16C16.44 17.77 16.45 18.74 17.08 19.34C17.71 19.93 18.7101 19.92 19.3201 19.32C19.9301 18.71 19.9201 17.74 19.2901 17.14C18.9801 16.85 18.5801 16.7 18.1801 16.7C17.7801 16.7 17.36 16.85 17.05 17.16ZM9.73007 14.34C8.87007 15.34 9.00006 16.82 10.0301 17.65C11.0501 18.48 12.5801 18.35 13.4401 17.36C14.3001 16.36 14.1701 14.88 13.1401 14.05C12.6901 13.68 12.1301 13.5 11.5901 13.5C10.9001 13.5 10.2101 13.79 9.73007 14.34ZM21.3901 13.53C20.6801 14.03 20.5201 14.99 21.0301 15.68C21.5401 16.37 22.5301 16.53 23.2401 16.03C23.9501 15.53 24.1101 14.57 23.6001 13.88C23.2901 13.46 22.8001 13.24 22.3101 13.24C21.9901 13.24 21.6701 13.33 21.3901 13.53ZM56.8801 13.51C56.3901 14.21 56.57 15.17 57.3 15.65C58.0201 16.13 59.0101 15.95 59.5001 15.25C59.9901 14.55 59.8101 13.59 59.0901 13.11C58.8201 12.93 58.5001 12.84 58.2001 12.84C57.6901 12.84 57.2001 13.08 56.8901 13.51H56.8801ZM26.3201 10.7C25.5301 11.07 25.2 11.99 25.58 12.75C25.96 13.52 26.9101 13.84 27.7001 13.47C28.4901 13.1 28.8201 12.18 28.4401 11.42C28.1701 10.87 27.6001 10.55 27.0101 10.55C26.7801 10.55 26.5501 10.6 26.3201 10.7ZM51.9901 11.15C51.6301 11.93 51.9901 12.84 52.7801 13.19C53.5801 13.54 54.5201 13.19 54.8801 12.42C55.2401 11.65 54.8801 10.73 54.0901 10.38C53.8801 10.29 53.6601 10.24 53.4401 10.24C52.8401 10.24 52.2601 10.58 51.9901 11.15ZM14.6901 9.53C13.6701 10.37 13.5301 11.85 14.3901 12.85C15.2501 13.84 16.78 13.97 17.8 13.14C18.82 12.31 18.9601 10.82 18.1001 9.83C17.6201 9.27 16.9301 8.99001 16.2401 8.99001C15.6901 8.99001 15.1401 9.16999 14.6901 9.53999V9.53ZM63.0001 9.82001C62.1401 10.82 62.2701 12.3 63.3 13.13C64.32 13.97 65.8501 13.84 66.7101 12.84C67.5701 11.84 67.4401 10.36 66.4101 9.52C65.9601 9.15 65.4 8.97 64.86 8.97C64.17 8.97 63.4801 9.26 63.0001 9.81V9.82001ZM31.6801 8.73C30.8401 8.96 30.35 9.81001 30.58 10.63C30.82 11.45 31.6901 11.93 32.5301 11.7C33.3701 11.47 33.8701 10.62 33.6301 9.8C33.4301 9.12 32.8 8.67999 32.11 8.67999C31.97 8.67999 31.8201 8.70001 31.6801 8.74001V8.73ZM46.7601 9.64999C46.5401 10.47 47.0601 11.31 47.9001 11.52C48.7501 11.73 49.61 11.23 49.83 10.41C50.05 9.59 49.5301 8.74999 48.6901 8.53999C48.5601 8.50999 48.43 8.49001 48.3 8.49001C47.59 8.49001 46.9501 8.94999 46.7701 9.64999H46.7601ZM37.3101 7.7C36.4401 7.78 35.8001 8.54 35.8901 9.38C35.9801 10.23 36.7501 10.84 37.6201 10.76C38.4901 10.68 39.1301 9.92 39.0401 9.08C38.9601 8.29 38.2701 7.69 37.4701 7.69C37.4201 7.69 37.3601 7.69 37.3101 7.69V7.7ZM41.33 9.06C41.26 9.91 41.9201 10.65 42.7901 10.71C43.6601 10.78 44.4201 10.14 44.4901 9.28999C44.5601 8.43999 43.9001 7.7 43.0301 7.64C42.9901 7.64 42.9501 7.64 42.9101 7.64C42.0901 7.64 41.39 8.25 41.33 9.06ZM20.4401 5.62C19.2801 6.27 18.88 7.71 19.55 8.83C20.22 9.95 21.7 10.34 22.86 9.69C24.02 9.04 24.4101 7.6 23.7501 6.48C23.3001 5.73 22.4901 5.3 21.6501 5.3C21.2401 5.3 20.8201 5.4 20.4401 5.62ZM57.36 6.48C56.69 7.6 57.0901 9.04 58.2501 9.69C59.4101 10.34 60.8901 9.95 61.5601 8.83C62.2301 7.7 61.8301 6.27 60.6701 5.62C60.2901 5.41 59.8701 5.3 59.4601 5.3C58.6201 5.3 57.81 5.72 57.36 6.48ZM26.7901 2.74001C25.5301 3.18001 24.8901 4.53 25.3401 5.75C25.8001 6.97 27.1901 7.6 28.4401 7.16C29.7001 6.72 30.3401 5.36999 29.8901 4.14999C29.5301 3.18999 28.6 2.60001 27.61 2.60001C27.33 2.60001 27.0601 2.65001 26.7801 2.74001H26.7901ZM51.2101 4.14999C50.7501 5.36999 51.4001 6.72 52.6601 7.16C53.9201 7.6 55.3101 6.98 55.7601 5.75C56.2201 4.53 55.5701 3.18001 54.3101 2.74001C54.0401 2.64001 53.7601 2.60001 53.4801 2.60001C52.4901 2.60001 51.5601 3.18999 51.2101 4.14999ZM33.5601 0.979996C32.2401 1.21 31.3601 2.43001 31.6001 3.71001C31.8301 4.99001 33.0901 5.83999 34.4101 5.62C35.7301 5.39 36.6001 4.18 36.3701 2.89C36.1601 1.75 35.1401 0.949997 33.9901 0.949997C33.8501 0.949997 33.7101 0.960006 33.5701 0.990005L33.5601 0.979996ZM44.7301 2.88C44.5001 4.16 45.3801 5.38 46.6901 5.61C48.0101 5.84 49.2601 4.98 49.4901 3.7C49.7201 2.42 48.8401 1.2 47.5301 0.970001C47.3901 0.950001 47.25 0.929993 47.11 0.929993C45.96 0.929993 44.9401 1.73 44.7301 2.87V2.88ZM38.1301 2.74001C38.1301 4.04001 39.21 5.09 40.55 5.09C41.89 5.09 42.9701 4.04001 42.9701 2.74001C42.9701 1.44001 41.89 0.389999 40.55 0.389999C39.21 0.389999 38.1301 1.44001 38.1301 2.74001Z" fill="white"/>
</mask>
<g mask="url(#mask0_2_56)">
<path d="M67.5601 0.380005H0.320068V78.55H67.5601V0.380005Z" fill="white"/>
</g>
</svg>
