<svg width="10" height="10" viewBox="0 0 10 10" fill="none" xmlns="http://www.w3.org/2000/svg">
<path d="M1.34012 9.239L0.67712 8.525L2.75112 6.485C2.44512 6.111 2.21279 5.71433 2.05412 5.295C1.90679 4.87567 1.83312 4.428 1.83312 3.952C1.83312 3.22667 2.00879 2.56933 2.36012 1.98C2.72279 1.37933 3.20445 0.903334 3.80512 0.552001C4.40579 0.189334 5.06312 0.00800079 5.77712 0.00800079C6.50245 0.00800079 7.15979 0.189334 7.74912 0.552001C8.34979 0.903334 8.82579 1.37933 9.17712 1.98C9.53979 2.56933 9.72112 3.22667 9.72112 3.952C9.72112 4.666 9.53979 5.32333 9.17712 5.924C8.82579 6.52467 8.34979 7.00633 7.74912 7.369C7.15979 7.72033 6.50245 7.896 5.77712 7.896C5.34645 7.896 4.93845 7.83367 4.55312 7.709C4.16779 7.58433 3.80512 7.39733 3.46512 7.148L1.34012 9.239ZM5.77712 6.825C6.29845 6.825 6.77445 6.70033 7.20512 6.451C7.64712 6.19033 7.99845 5.84467 8.25912 5.414C8.51979 4.972 8.65012 4.48467 8.65012 3.952C8.65012 3.41933 8.51979 2.93767 8.25912 2.507C7.99845 2.065 7.65279 1.71933 7.22212 1.47C6.79145 1.20933 6.30979 1.079 5.77712 1.079C5.24445 1.079 4.75712 1.20933 4.31512 1.47C3.88445 1.71933 3.53879 2.065 3.27812 2.507C3.02879 2.93767 2.90412 3.41933 2.90412 3.952C2.90412 4.48467 3.02879 4.972 3.27812 5.414C3.53879 5.84467 3.88445 6.19033 4.31512 6.451C4.75712 6.70033 5.24445 6.825 5.77712 6.825Z" fill="white"/>
</svg>
