<svg width="24" height="25" viewBox="0 0 24 25" fill="none" xmlns="http://www.w3.org/2000/svg">
<path d="M23.56 5.40997L19.32 1.16998C19.2 1.04998 19.04 0.97998 18.87 0.97998H7.85001C6.56001 0.97998 5.51999 2.02 5.51999 3.31V8.40002C2.52999 9.65002 0.429993 12.6 0.429993 16.03C0.429993 20.59 4.14001 24.3 8.70001 24.3H21.42C22.71 24.3 23.75 23.26 23.75 21.97V13.915V5.85999C23.75 5.68999 23.68 5.52997 23.56 5.40997ZM19.51 3.15002L21.58 5.21997H19.72C19.6 5.21997 19.51 5.13001 19.51 5.01001V3.15002ZM1.70001 16.03C1.70001 12.17 4.84001 9.03003 8.70001 9.03003C12.56 9.03003 15.7 12.17 15.7 16.03C15.7 19.89 12.56 23.03 8.70001 23.03C4.84001 23.03 1.70001 19.89 1.70001 16.03ZM21.42 23.03H13.08C15.4 21.56 16.96 18.98 16.96 16.03C16.96 11.47 13.25 7.76001 8.69 7.76001C8.03 7.76001 7.39 7.83999 6.78 7.98999V3.31C6.78 2.72 7.25 2.25 7.84 2.25H18.23V5.01001C18.23 5.82001 18.9 6.48999 19.71 6.48999H22.47V21.97C22.47 22.56 22 23.03 21.41 23.03H21.42ZM8.69 20.06C8.53 20.06 8.36999 20 8.23999 19.87L6.54001 18.17C6.29001 17.92 6.29001 17.52 6.54001 17.27C6.79001 17.02 7.19 17.02 7.44 17.27L8.04999 17.88V12.63C8.04999 12.28 8.34 11.99 8.69 11.99C9.04 11.99 9.32999 12.28 9.32999 12.63V17.88L9.94 17.27C10.19 17.02 10.59 17.02 10.84 17.27C11.09 17.52 11.09 17.92 10.84 18.17L9.14001 19.87C9.01001 20 8.85 20.06 8.69 20.06Z" fill="#164193"/>
</svg>
